<svg width="33" height="24" viewBox="0 0 33 24" fill="none" xmlns="http://www.w3.org/2000/svg">
<path d="M18.7701 1.42179C19.5511 0.640744 20.8174 0.640745 21.5985 1.42179L30.7624 10.5857C31.5434 11.3667 31.5434 12.6331 30.7624 13.4141L21.5985 22.578C20.8174 23.3591 19.5511 23.3591 18.7701 22.578L9.60615 13.4141C8.8251 12.6331 8.8251 11.3667 9.60615 10.5857L18.7701 1.42179Z" fill="#4CA154"/>
<path d="M10.5781 1.42199C11.3592 0.640939 12.6255 0.640939 13.4065 1.42199L22.5704 10.5859C23.3515 11.3669 23.3515 12.6333 22.5704 13.4143L13.4065 22.5782C12.6255 23.3593 11.3592 23.3593 10.5781 22.5782L1.41421 13.4143C0.633163 12.6333 0.633163 11.3669 1.41421 10.5859L10.5781 1.42199Z" fill="#263FA9"/>
</svg>
